<svg class="svg-icon" style="width: 1em; height: 1em;vertical-align: middle;fill: currentColor;overflow: hidden;" viewBox="0 0 1024 1024" version="1.1" xmlns="http://www.w3.org/2000/svg"><path d="M512 0c282.7776 0 512 229.12 512 511.744a509.6448 509.6448 0 0 1-47.7184 216.0128l44.9536 214.9376c11.5712 55.3984-23.7568 90.7776-79.104 79.0528l-214.7328-45.568a510.2592 510.2592 0 0 1-215.3984 47.36c-282.7776 0-512-229.12-512-511.7952C0 229.12 229.2224 0 512 0z m0 102.4a409.6 409.6 0 1 0 0 819.2c60.416 0 118.784-13.0048 172.2368-37.888l31.0272-14.336 194.6112 41.6256-40.7552-195.328 14.336-30.8736A407.6544 407.6544 0 0 0 921.6 512a409.6 409.6 0 0 0-409.6-409.6z m0 332.8a76.8 76.8 0 1 1 0 153.6 76.8 76.8 0 0 1 0-153.6z m-204.8 0a76.8 76.8 0 1 1 0 153.6 76.8 76.8 0 0 1 0-153.6z m409.6 0a76.8 76.8 0 1 1 0 153.6 76.8 76.8 0 0 1 0-153.6z" fill="#191D3A" /></svg>